<svg width="215" height="50" viewBox="0 0 215 50" fill="none" xmlns="http://www.w3.org/2000/svg">
<path d="M38.4165 5.04264C39.1631 5.62975 39.8749 6.25972 40.5481 6.92939C42.7536 9.12552 44.5008 11.734 45.6946 14.6056C46.8884 17.477 47.5028 20.5552 47.5028 23.6639C47.5028 26.7726 46.8884 29.8508 45.6946 32.7223C44.5008 35.5936 42.7511 38.2022 40.5455 40.3983C40.0884 40.8647 39.5658 41.3338 38.8972 41.9072L38.8658 41.9359C38.0147 42.6269 37.1184 43.2608 36.1831 43.8331C36.1438 43.8624 36.1028 43.8893 36.0601 43.9138C35.4542 44.2812 34.7984 44.633 34.0514 44.9953C33.0075 45.5133 31.9202 45.9389 30.8016 46.2669H30.7859C28.5107 46.9813 26.139 47.3424 23.7536 47.3381C23.2687 47.3381 22.8036 47.1457 22.4606 46.8038C22.1177 46.4617 21.925 45.9975 21.925 45.5139C21.925 45.0299 22.1177 44.5661 22.4606 44.2239C22.8036 43.8819 23.2687 43.6897 23.7536 43.6897C25.7797 43.6938 27.7942 43.3854 29.7254 42.7749H29.7463C30.6677 42.506 31.5636 42.1573 32.4239 41.7325C33.0456 41.4329 33.5785 41.1488 34.0618 40.8595L34.1663 40.7892C34.9881 40.2915 35.7736 39.7369 36.5173 39.1291C37.1051 38.634 37.5622 38.217 37.9514 37.8261C39.817 35.9694 41.2968 33.7636 42.3064 31.3354C43.3162 28.9073 43.836 26.3042 43.836 23.6756C43.836 21.0468 43.3162 18.4437 42.3064 16.0156C41.2968 13.5875 39.817 11.3818 37.9514 9.52497C37.3796 8.9528 36.7744 8.41502 36.1386 7.91446C35.8617 7.69816 35.577 7.48447 35.2948 7.2786L35.1641 7.1952C34.8376 6.96589 34.506 6.75218 34.1768 6.55413C34.1455 6.53753 34.116 6.51763 34.0855 6.49704L34.0618 6.48115C32.9741 5.84527 31.8334 5.30381 30.6527 4.86284H30.624C30.3538 4.75465 30.0786 4.6607 29.7986 4.58139L29.7254 4.56054C27.7917 3.96186 25.7784 3.65787 23.7536 3.65886H22.9203C22.8001 3.67595 22.6788 3.68465 22.5573 3.68492L21.8388 3.73444H21.8075C21.7567 3.74495 21.7057 3.75337 21.6543 3.75969C21.6358 3.76197 21.6172 3.76398 21.5986 3.76571L21.2563 3.81001H21.1989C20.9358 3.83327 20.6742 3.87067 20.4151 3.92206L20.3184 3.94032C19.2297 4.12189 18.1588 4.39831 17.1184 4.7664C16.2916 5.05386 15.4875 5.40227 14.7125 5.80881C14.6761 5.8283 14.6386 5.84571 14.6002 5.86093C14.5218 5.89481 14.4408 5.93128 14.4043 5.95215L14.3494 5.9808C14.0647 6.12414 13.7564 6.30135 13.4272 6.50201C12.9675 6.77303 12.5391 7.05188 12.1342 7.34375C12.0741 7.39587 11.9826 7.46362 11.8729 7.53139L11.7084 7.65647L11.6603 7.69368C11.5809 7.7551 11.4987 7.81865 11.4184 7.8858L11.3244 7.95615C11.2459 8.01893 11.1639 8.07723 11.0788 8.13076C10.9233 8.24563 10.7766 8.37195 10.6399 8.50864C10.6113 8.53724 10.5824 8.56601 10.5511 8.59202C10.3757 8.74273 10.198 8.90841 10.0149 9.07911C9.92278 9.16505 9.82876 9.25273 9.73347 9.33994C9.30765 9.74648 8.86354 10.2286 8.38029 10.7889C8.34929 10.8377 8.31433 10.8839 8.27579 10.927C7.24592 12.1707 6.36892 13.5329 5.66348 14.9845C5.48585 15.3415 5.37355 15.5839 5.28473 15.8158L5.26644 15.8576C5.04439 16.3892 4.83018 16.9834 4.58983 17.7209C3.97905 19.6459 3.67065 21.6537 3.67556 23.6729V24.0561C3.67948 24.116 3.67948 24.176 3.67556 24.2359V45.5243C3.67556 46.0082 3.48288 46.4722 3.13995 46.8142C2.79701 47.1562 2.33192 47.3485 1.84697 47.3485C1.36197 47.3485 0.896836 47.1562 0.553904 46.8142C0.210971 46.4722 0.0183358 46.0082 0.0183358 45.5243V24.3114C4.43304e-05 24.0743 4.43307e-05 23.8527 4.43307e-05 23.6677C-0.00464578 21.2691 0.362846 18.8842 1.08939 16.5977C1.36887 15.7689 1.61182 15.0887 1.87306 14.4659C2.04024 14.0412 2.22571 13.6581 2.372 13.3688C3.17133 11.7227 4.15834 10.1741 5.31347 8.75359C5.35641 8.68961 5.40263 8.62785 5.45191 8.56856C6.06316 7.84931 6.62743 7.23168 7.17864 6.71049L7.19953 6.68964L7.35693 6.54233C7.59183 6.3222 7.83193 6.09721 8.07727 5.88439C8.36315 5.60552 8.66963 5.34854 8.99418 5.11562L9.01947 5.09841C9.04252 5.08256 9.06601 5.06641 9.09084 5.05306L9.12478 5.02701C9.16624 4.99506 9.21177 4.95937 9.2566 4.92423C9.33603 4.86199 9.41338 4.80137 9.46179 4.7664C9.52907 4.71783 9.59426 4.6672 9.65737 4.61814L9.6812 4.59962C9.7556 4.53899 9.83516 4.48494 9.91895 4.43805L9.94504 4.41982L9.97378 4.39636C10.478 4.03933 11.003 3.69795 11.5412 3.38001C11.9043 3.1585 12.2726 2.94743 12.6174 2.76499C12.7977 2.66598 12.9623 2.59302 13.1007 2.53307C14.0092 2.06484 14.9503 1.66246 15.9167 1.32909C17.1404 0.897364 18.399 0.571292 19.6785 0.354452C20.0532 0.275735 20.4071 0.234172 20.7246 0.196884L20.7808 0.190268L21.1492 0.14336C21.3454 0.0938381 21.5477 0.0719087 21.75 0.0782091L22.3848 0.0365177H22.4841C22.516 0.0317366 22.548 0.0279436 22.5801 0.0251387C22.6012 0.02329 22.6223 0.0218662 22.6434 0.0208782C23.0222 3.24493e-05 23.3984 3.24492e-05 23.7668 3.24492e-05C26.1446 -0.00388807 28.5098 0.347471 30.7834 1.04243C31.1781 1.1538 31.567 1.28513 31.9484 1.43594C33.3695 1.96555 34.7402 2.62052 36.0446 3.39305C36.0912 3.42153 36.1389 3.45059 36.1856 3.48425C36.4965 3.6745 36.8099 3.87776 37.1208 4.08885C37.1932 4.12882 37.2628 4.17321 37.3298 4.22175L37.3896 4.26584C37.7213 4.51035 38.0667 4.7649 38.4165 5.04264Z" fill="white"/>
<path fill-rule="evenodd" clip-rule="evenodd" d="M14.8805 50C14.2401 50 13.626 49.7464 13.1732 49.2953C12.7205 48.8438 12.4661 48.2315 12.4661 47.5934V23.412C12.4655 23.0237 12.4845 22.6364 12.5228 22.2515C12.6023 21.4337 12.7656 20.6221 13.0128 19.8295C13.3135 18.9133 13.716 18.0333 14.2131 17.2063C14.2495 17.1465 14.2865 17.0868 14.3239 17.0276C14.6017 16.5849 14.9101 16.1616 15.2469 15.7608C15.4887 15.4712 15.7447 15.1927 16.0134 14.9268C16.1694 14.7725 16.3291 14.6229 16.4923 14.478C17.5001 13.567 18.6586 12.8347 19.9183 12.3141C21.3771 11.7115 22.942 11.405 24.5212 11.413L24.529 11.413L24.5368 11.413C26.1161 11.405 27.6809 11.7115 29.1397 12.3141C30.3994 12.8347 31.558 13.567 32.5657 14.478C32.729 14.6229 32.8887 14.7725 33.0446 14.9268C33.3134 15.1927 33.5692 15.471 33.811 15.7606C34.1478 16.1614 34.4565 16.5851 34.7343 17.0278C34.7717 17.087 34.8086 17.1465 34.845 17.2063C35.342 18.0333 35.7445 18.9133 36.0453 19.8295C36.2924 20.6221 36.4557 21.4337 36.5353 22.2515C36.5533 22.4332 36.5671 22.6155 36.5766 22.7982L36.5761 22.8017C36.6487 24.2163 36.4717 25.6406 36.0453 27.0082C35.7473 27.9207 35.3482 28.7971 34.8555 29.6213C33.7802 31.3897 32.2671 32.8533 30.4609 33.8716C28.655 34.8897 26.6168 35.428 24.542 35.4349L24.529 35.4349L24.5161 35.4349C22.4412 35.428 20.4031 34.8897 18.5971 33.8716C18.1451 33.6168 17.7116 33.3341 17.2986 33.0258V47.5934C17.2986 47.9098 17.2359 48.223 17.1144 48.5151C16.9927 48.8073 16.8146 49.0728 16.5901 49.2962C16.3655 49.5198 16.099 49.6972 15.8055 49.8178C15.5122 49.9385 15.198 50.0004 14.8805 50ZM29.614 18.3374C29.4049 18.1264 29.1832 17.9293 28.9502 17.7469C28.6692 17.5318 28.3721 17.3368 28.0607 17.1637C26.9808 16.5633 25.7655 16.2468 24.529 16.2436C23.2925 16.2468 22.0773 16.5633 20.9974 17.1637C20.686 17.3368 20.3888 17.5319 20.1078 17.7469C19.8748 17.9293 19.6531 18.1264 19.444 18.3374L19.4095 18.3718C18.7516 19.0115 18.2347 19.7809 17.8917 20.6305L17.8607 20.7028C17.4814 21.57 17.29 22.5072 17.2986 23.4532V23.6455C17.3187 24.2859 17.4238 24.9243 17.614 25.5436C17.7972 26.1026 18.0413 26.6396 18.3417 27.1457C18.9897 28.2005 19.8965 29.0735 20.9768 29.6817C22.0571 30.2898 23.2754 30.6135 24.5161 30.6217L24.529 30.6217L24.542 30.6217C25.7827 30.6135 27.0009 30.2898 28.0812 29.6817C29.1615 29.0735 30.0684 28.2005 30.7163 27.1457C31.0167 26.6396 31.2609 26.1026 31.444 25.5436C31.6791 24.7782 31.7843 23.9837 31.7595 23.1922V23.331C31.7512 22.4266 31.5603 21.5326 31.1974 20.7028L31.1663 20.6305C30.8233 19.7809 30.3064 19.0115 29.6486 18.3718L29.614 18.3374Z" fill="white"/>
<path d="M36.5766 22.7982C36.5825 22.7463 36.5867 22.6941 36.5892 22.6416C36.591 22.6034 36.592 22.565 36.592 22.5265V23.38C36.5917 23.1857 36.5866 22.9918 36.5766 22.7982Z" fill="white"/>
<path d="M86.6066 17.7554V39.0622H92.5951V17.7554H86.6066Z" fill="white"/>
<path d="M87.3236 14.1349C87.9608 14.7175 88.7246 15.0088 89.6149 15.0088C90.5052 15.0088 91.2643 14.7175 91.8922 14.1349C92.5295 13.5431 92.8481 12.8356 92.8481 12.0126C92.8481 11.1987 92.5295 10.5005 91.8922 9.91794C91.2643 9.32608 90.5052 9.03015 89.6149 9.03015C88.7246 9.03015 87.9608 9.32608 87.3236 9.91794C86.6957 10.5005 86.3817 11.1987 86.3817 12.0126C86.3817 12.8356 86.6957 13.5431 87.3236 14.1349Z" fill="white"/>
<path fill-rule="evenodd" clip-rule="evenodd" d="M61.0889 10.6531V39.0622H67.1758V29.8515H72.2927C74.5044 29.8515 76.3881 29.4492 77.9438 28.6446C79.5088 27.8401 80.7037 26.7165 81.5284 25.2738C82.3531 23.8312 82.7654 22.1666 82.7654 20.28C82.7654 18.3935 82.3578 16.7289 81.5424 15.2863C80.7365 13.8344 79.565 12.7015 78.0281 11.8877C76.4912 11.0647 74.6309 10.6531 72.4473 10.6531H61.0889ZM71.3087 25.038H67.1758V15.5637H71.2805C72.4614 15.5637 73.436 15.7625 74.2045 16.1602C74.973 16.5486 75.5446 17.0988 75.9195 17.8109C76.3037 18.5137 76.4958 19.3368 76.4958 20.28C76.4958 21.2141 76.3037 22.0417 75.9195 22.7631C75.5446 23.4751 74.973 24.0346 74.2045 24.4415C73.4454 24.8392 72.4801 25.038 71.3087 25.038Z" fill="white"/>
<path d="M102.397 17.7554L106.361 25.2045L110.423 17.7554H116.566L110.311 28.4088L116.735 39.0622H110.62L106.361 31.6964L102.172 39.0622H95.9864L102.397 28.4088L96.2114 17.7554H102.397Z" fill="white"/>
<path fill-rule="evenodd" clip-rule="evenodd" d="M123.455 38.1467C125.057 39.0345 126.969 39.4784 129.19 39.4784C130.971 39.4784 132.54 39.2102 133.899 38.6738C135.268 38.1282 136.383 37.3699 137.245 36.3989C138.117 35.4186 138.693 34.2719 138.974 32.9587L133.435 32.598C133.229 33.1344 132.929 33.5876 132.536 33.9575C132.142 34.3274 131.669 34.6048 131.116 34.7898C130.563 34.9747 129.954 35.0672 129.288 35.0672C128.286 35.0672 127.419 34.8591 126.688 34.443C125.957 34.0268 125.39 33.435 124.987 32.6674C124.593 31.8998 124.396 30.9889 124.396 29.9347V29.9208H139.101V28.2978C139.101 26.4853 138.843 24.9039 138.327 23.5537C137.812 22.1943 137.09 21.0661 136.163 20.1691C135.244 19.272 134.166 18.6016 132.929 18.1577C131.702 17.7045 130.376 17.478 128.951 17.478C126.833 17.478 124.987 17.9404 123.412 18.8651C121.847 19.7899 120.634 21.08 119.772 22.7353C118.909 24.3907 118.478 26.3142 118.478 28.5059C118.478 30.7531 118.909 32.6998 119.772 34.3459C120.634 35.9827 121.861 37.2497 123.455 38.1467ZM124.402 26.2587C124.438 25.4936 124.638 24.7954 125.001 24.1641C125.395 23.4705 125.938 22.9203 126.632 22.5134C127.334 22.0972 128.14 21.8892 129.049 21.8892C129.921 21.8892 130.685 22.0787 131.341 22.4579C132.006 22.8278 132.526 23.341 132.901 23.9976C133.276 24.6542 133.464 25.4079 133.464 26.2587H124.402Z" fill="white"/>
<path d="M148.997 10.6531V39.0622H143.008V10.6531H148.997Z" fill="white"/>
<path fill-rule="evenodd" clip-rule="evenodd" d="M153.906 10.6531V39.0622H159.993V29.8515H165.11C167.322 29.8515 169.206 29.4492 170.761 28.6446C172.326 27.8401 173.521 26.7165 174.346 25.2738C175.171 23.8312 175.583 22.1666 175.583 20.28C175.583 18.3935 175.175 16.7289 174.36 15.2863C173.554 13.8344 172.383 12.7015 170.846 11.8877C169.309 11.0647 167.448 10.6531 165.265 10.6531H153.906ZM159.993 25.038H164.126C165.298 25.038 166.263 24.8392 167.022 24.4415C167.791 24.0346 168.362 23.4751 168.737 22.7631C169.121 22.0417 169.313 21.2141 169.313 20.28C169.313 19.3368 169.121 18.5137 168.737 17.8109C168.362 17.0988 167.791 16.5486 167.022 16.1602C166.254 15.7625 165.279 15.5637 164.098 15.5637H159.993V25.038Z" fill="white"/>
<path d="M179.424 39.0622V17.7554H185.23V21.473H185.455C185.848 20.1506 186.509 19.1518 187.437 18.4767C188.365 17.7924 189.433 17.4502 190.642 17.4502C190.942 17.4502 191.265 17.4687 191.612 17.5057C191.959 17.5427 192.263 17.5936 192.526 17.6583V22.9018C192.245 22.8185 191.856 22.7446 191.359 22.6798C190.862 22.6151 190.408 22.5827 189.995 22.5827C189.114 22.5827 188.327 22.7723 187.634 23.1515C186.95 23.5214 186.406 24.0393 186.003 24.7051C185.609 25.3709 185.413 26.1385 185.413 27.0078V39.0622H179.424Z" fill="white"/>
<path fill-rule="evenodd" clip-rule="evenodd" d="M198.707 38.1051C200.301 39.0206 202.189 39.4784 204.373 39.4784C206.556 39.4784 208.44 39.0206 210.024 38.1051C211.617 37.1803 212.845 35.8949 213.707 34.2488C214.569 32.5934 215 30.6745 215 28.492C215 26.2911 214.569 24.3675 213.707 22.7214C212.845 21.0661 211.617 19.7807 210.024 18.8651C208.44 17.9404 206.556 17.478 204.373 17.478C202.189 17.478 200.301 17.9404 198.707 18.8651C197.124 19.7807 195.901 21.0661 195.038 22.7214C194.176 24.3675 193.745 26.2911 193.745 28.492C193.745 30.6745 194.176 32.5934 195.038 34.2488C195.901 35.8949 197.124 37.1803 198.707 38.1051ZM206.889 34.0684C206.223 34.6233 205.394 34.9007 204.401 34.9007C203.398 34.9007 202.555 34.6233 201.87 34.0684C201.196 33.5043 200.685 32.7368 200.338 31.7657C200.001 30.7947 199.832 29.6896 199.832 28.4504C199.832 27.2112 200.001 26.1061 200.338 25.1351C200.685 24.1641 201.196 23.3965 201.87 22.8324C202.555 22.2683 203.398 21.9863 204.401 21.9863C205.394 21.9863 206.223 22.2683 206.889 22.8324C207.554 23.3965 208.056 24.1641 208.393 25.1351C208.74 26.1061 208.913 27.2112 208.913 28.4504C208.913 29.6896 208.74 30.7947 208.393 31.7657C208.056 32.7368 207.554 33.5043 206.889 34.0684Z" fill="white"/>
</svg>
