<svg width="90" height="90" viewBox="0 0 90 90" fill="none" xmlns="http://www.w3.org/2000/svg">
<rect width="90" height="90" rx="20" fill="url(#paint0_linear_43_40)"/>
<path fill-rule="evenodd" clip-rule="evenodd" d="M47.8333 30.9234C47.8333 19.2756 47.8333 19.0608 48.1667 18.7303C48.5 18.3999 48.7167 18.3999 60.3333 18.3999H72.1833L72.5833 18.8129L73 19.2095V30.8408C73 42.3564 73 42.4886 72.65 42.9182L72.3167 43.3477H60.3833C49.5 43.3477 48.4167 43.3312 48.1333 43.0669C47.85 42.819 47.8333 42.2243 47.8333 30.9234ZM70.5 41.0347V20.8782H50.1667V41.0347H70.5Z" fill="white"/>
<path d="M24.0667 19.8042C24.4667 19.4077 26.1667 18.8129 27.6167 18.5651C29.0167 18.3338 29.6 18.3834 30.0667 18.7468C30.3834 18.9947 30.5 19.2425 30.5 19.639C30.5 20.4486 29.95 20.8121 28.55 20.9277C27.9334 20.9773 26.8834 21.2086 26.2334 21.4399C24.7667 21.9686 24.5834 21.9686 24.0834 21.4564C23.55 20.9442 23.55 20.3164 24.0667 19.8042Z" fill="white"/>
<path d="M32.8668 19.6391C32.1668 20.4983 32.5168 21.1426 34.0834 21.8861C34.6668 22.167 35.5668 22.7617 36.1168 23.2078C37.2501 24.1496 37.8001 24.2322 38.4501 23.5878C39.0668 22.9765 38.8834 22.3157 37.8834 21.4235C36.7501 20.4322 34.8001 19.3583 33.9334 19.2757C33.3001 19.193 33.1834 19.2426 32.8668 19.6391Z" fill="white"/>
<path d="M17.6667 27.1564C17.6667 26.2808 19.65 22.9103 20.5333 22.2825C21.0667 21.919 21.6167 21.9686 22.0833 22.4477C22.6833 23.026 22.6 23.4721 21.65 24.7608C21.1667 25.4051 20.6 26.3303 20.3833 26.826C19.85 27.999 19.55 28.3129 18.9667 28.3129C18.4 28.3129 17.6667 27.6686 17.6667 27.1564Z" fill="white"/>
<path d="M39.3001 25.6198C38.8667 26.132 38.8334 26.4954 39.1667 27.4537C39.5334 28.5276 39.8334 30.0972 39.8334 30.9067C39.8334 31.9807 41.0834 32.5259 41.8501 31.7659C42.1834 31.4354 42.2001 31.2867 42.1334 29.8989C42.0334 28.2137 41.4834 26.1485 40.9834 25.6528C40.5834 25.2563 39.6334 25.2398 39.3001 25.6198Z" fill="white"/>
<path d="M17.1166 31.9644C17.0833 31.0557 17.1333 30.8905 17.4833 30.6096C17.9666 30.2131 18.5166 30.2131 19 30.5931C19.2666 30.8079 19.4166 31.2209 19.6 32.2618C19.7333 33.0218 20.0333 34.1122 20.25 34.6739C20.75 35.9131 20.7666 36.0783 20.3166 36.64C19.9 37.1522 19.0333 37.2348 18.6333 36.7722C17.9333 35.9792 17.1833 33.6 17.1166 31.9644Z" fill="white"/>
<path d="M39.8001 33.1043C39.6501 33.2035 39.4334 33.5504 39.3167 33.8974C39.0334 34.7565 38.4001 35.9956 37.7167 36.9704C37.2834 37.5982 37.1667 37.8956 37.2501 38.2096C37.5167 39.2835 38.6667 39.5809 39.4334 38.7713C40.5001 37.6148 41.9501 34.5582 41.7667 33.8313C41.7167 33.6165 41.5501 33.3356 41.4001 33.2035C41.1167 32.9061 40.2334 32.8565 39.8001 33.1043Z" fill="white"/>
<path d="M21.4666 40.4069C20.9 39.8782 20.8333 39.0521 21.3333 38.5564C21.8333 38.0608 22.4666 38.1434 23.5333 38.9034C24.0666 39.2669 25.0666 39.8286 25.75 40.1425C27.0333 40.7208 27.3333 41.0347 27.3333 41.7616C27.3333 42.2408 26.6333 42.8521 26.1 42.8521C25.25 42.8356 22.6 41.4477 21.4666 40.4069Z" fill="white"/>
<path d="M33.5833 40.1262C33.1333 40.3409 32.2666 40.6053 31.6666 40.7209C30.1 41.0018 29.7166 41.167 29.5 41.6957C29.2333 42.307 29.5666 43.034 30.2166 43.2488C31.1833 43.5957 35.35 42.3731 35.9666 41.5801C36.2666 41.167 36.2166 40.4235 35.8333 40.0435C35.4 39.614 34.6333 39.6305 33.5833 40.1262Z" fill="white"/>
<path fill-rule="evenodd" clip-rule="evenodd" d="M17 59.159C17 47.6434 17 47.5112 17.35 47.0816L17.6833 46.6521H29.6167C40.5 46.6521 41.5833 46.6686 41.8667 46.9329C42.15 47.1808 42.1667 47.7756 42.1667 59.0764C42.1667 70.7243 42.1667 70.939 41.8333 71.2695C41.5 71.5999 41.2833 71.5999 29.6667 71.5999H17.8167L17.4167 71.1869L17 70.7903V59.159ZM39.8333 69.1216V48.9651H19.5V69.1216H39.8333Z" fill="white"/>
<path fill-rule="evenodd" clip-rule="evenodd" d="M56.7833 56.1521C57.25 55.6399 58.2 54.979 58.75 54.7807C59.0333 54.6816 59.7833 54.599 60.4333 54.599C61.3667 54.5825 61.7667 54.6651 62.4667 55.0121C65.15 56.3338 65.8167 59.9355 63.7833 62.1494C62.9 63.0912 62 63.5373 60.7333 63.6364C58.8167 63.7851 57.1 62.8434 56.2167 61.1251C55.4167 59.6216 55.6833 57.3747 56.7833 56.1521ZM62.45 59.3407C62.5667 58.3825 62.1 57.5564 61.2667 57.1599C60.95 57.0112 60.5667 56.8955 60.3833 56.8955C59.5167 56.9286 58.45 57.7877 58.2167 58.6799C58.0667 59.3242 58.45 60.3155 59.0667 60.7781C60.3833 61.7694 62.2667 60.9764 62.45 59.3407Z" fill="white"/>
<path fill-rule="evenodd" clip-rule="evenodd" d="M57.2833 46.9823C53.1833 48.0067 49.7833 51.1458 48.4 55.1606C48.0166 56.251 47.9333 56.8623 47.8666 58.5971C47.7833 61.0919 48.0166 62.3641 48.9833 64.4128C50.5666 67.7502 53.5666 70.2284 57.1666 71.2032C58.8166 71.6493 62.0166 71.6163 63.7166 71.1371C68.1666 69.8815 71.5333 66.445 72.6166 62.0502C73.0333 60.3484 72.9833 57.4736 72.5166 55.838C71.8833 53.6076 70.9666 52.0545 69.25 50.3693C67.5333 48.6676 66.45 47.9902 64.3833 47.2632C63.1 46.8336 62.65 46.751 60.75 46.718C59 46.6684 58.3333 46.718 57.2833 46.9823ZM62.0833 49.2128C65.9333 49.8902 69.2 52.8971 70.1666 56.6476C70.9833 59.8032 70.1333 63.2563 67.9333 65.751C64.9666 69.105 59.8666 70.0797 55.8833 68.0641C53.0166 66.6102 51.0166 63.9997 50.4 60.9102C49.3166 55.4415 53.3 49.9728 59 49.1467C60.3333 48.9484 60.6 48.9484 62.0833 49.2128Z" fill="white"/>
<defs>
<linearGradient id="paint0_linear_43_40" x1="45" y1="0" x2="45" y2="90" gradientUnits="userSpaceOnUse">
<stop stop-color="#AE2FF5"/>
<stop offset="1" stop-color="#FF5993"/>
</linearGradient>
</defs>
</svg>
