<svg width="90" height="90" viewBox="0 0 90 90" fill="none" xmlns="http://www.w3.org/2000/svg">
<rect width="90" height="90" rx="20" fill="url(#paint0_linear_43_47)"/>
<path d="M27.3511 34.8913C25.6234 35.4869 24.4468 36.4847 24.4468 37.3633C24.4468 38.4058 25.5787 38.6887 26.5021 37.8845C27.1574 37.3038 28.0213 36.9166 28.9447 36.7825C29.3319 36.723 29.7489 36.5592 29.8979 36.3953C30.2404 36.023 30.2255 35.3082 29.883 34.921C29.5404 34.5338 28.4085 34.519 27.3511 34.8913Z" fill="white"/>
<path d="M32.266 38.2122C31.6107 37.3782 31.566 36.723 32.1319 36.2762C32.683 35.8444 32.9958 35.889 33.6809 36.4996C34.4256 37.1846 35.1256 38.5845 35.3341 39.8056C35.5575 41.2502 35.2745 41.7714 34.2766 41.7714C33.5915 41.7714 33.2341 41.3842 33.2341 40.6396C33.2341 39.9397 32.8468 38.9568 32.266 38.2122Z" fill="white"/>
<path d="M23.3893 40.2971C22.6893 40.997 23.3595 43.4542 24.6255 44.8242C25.251 45.5093 25.4595 45.6433 25.8766 45.6433C27.0234 45.6433 27.3361 44.5413 26.4574 43.5733C25.8617 42.9181 25.4149 41.9799 25.2659 41.0566C25.1021 40.029 24.0744 39.612 23.3893 40.2971Z" fill="white"/>
<path d="M31.8935 43.6327C32.1021 43.4093 32.4744 43.1264 32.7127 43.0221C33.2489 42.7987 33.651 42.8732 34.0233 43.2902C34.5148 43.871 34.2467 44.6751 33.2489 45.4644C31.834 46.5962 29.5552 47.1919 28.9148 46.6111C28.5276 46.2686 28.5276 45.4346 28.885 45.0772C29.0489 44.9134 29.451 44.7496 29.7935 44.69C30.5978 44.5709 31.4169 44.1539 31.8935 43.6327Z" fill="white"/>
<path fill-rule="evenodd" clip-rule="evenodd" d="M42.2894 18.5697C42.1553 18.6739 40.4872 21.4438 38.5809 24.7201C36.6745 27.9963 35.066 30.7364 35.0064 30.8109C34.9319 30.8853 34.5149 30.7811 33.9936 30.5428C32.2809 29.7833 30.866 29.5153 28.7809 29.5897C27.1723 29.6493 26.7106 29.7238 25.5936 30.111C23.8064 30.7364 22.7936 31.3768 21.3787 32.7617C20.0085 34.1169 19.1447 35.4721 18.5489 37.2293C17.9681 38.927 17.8638 41.6224 18.3255 43.4244C18.9511 45.9709 20.5298 48.3089 22.6894 49.8875L23.5234 50.513L20.2617 56.1123C17.983 60.014 17 61.8457 17 62.1585C17 62.4563 17.1191 62.6946 17.3872 62.9031C17.7894 63.2158 17.8638 63.2158 30.5532 63.2158C42.8106 63.2158 43.3468 63.2009 43.6745 62.9329C44.1511 62.5457 44.1511 61.6521 43.6745 61.265C43.3468 60.9969 42.8404 60.982 31.6702 60.982H20.0085L22.7638 56.2464C23.1813 55.5343 23.5785 54.8559 23.9357 54.2459L23.9375 54.243C24.8792 52.6348 25.5422 51.5025 25.5638 51.4809C25.5787 51.466 26.0255 51.5405 26.5468 51.6596C28.0809 52.0022 29.3468 52.0766 30.6574 51.8979C35.7957 51.198 39.6085 47.4303 40.383 42.2628C40.8596 39.1653 39.7426 35.5316 37.6128 33.2978L36.7043 32.3448L39.8319 26.9985C41.5447 24.0499 42.9745 21.6821 43.0043 21.697C43.034 21.7268 46.3404 27.3857 50.3468 34.2509L57.6447 46.7602L52.8638 46.8049C48.6638 46.8346 48.0383 46.8644 47.8 47.0878C47.5468 47.3112 47.5319 47.9366 47.5319 59.5673C47.5319 71.2426 47.5468 71.8234 47.8 72.0467C48.0532 72.285 49.1255 72.2999 60.2362 72.2999C72.2106 72.2999 72.4043 72.2999 72.7021 72.0021C73 71.7042 73 71.5106 73 59.5971C73 48.8897 72.9702 47.4601 72.7617 47.1623L72.5383 46.8346H60.2511L52.0894 32.8213C47.5915 25.1221 43.8234 18.7186 43.7043 18.5995C43.4362 18.3463 42.617 18.3314 42.2894 18.5697ZM31.9681 32.1512C34.917 33.0894 37.2255 35.5614 38 38.5845C38.566 40.7587 38.3574 42.5309 37.3149 44.7051C35.9149 47.6388 33.0851 49.545 29.7936 49.7684C25.7426 50.0364 21.9149 47.4154 20.6191 43.4839C20.1277 41.965 20.0681 39.8056 20.4851 38.4207C21.7064 34.3254 25.534 31.4959 29.5851 31.7044C30.2851 31.7491 31.2681 31.9278 31.9681 32.1512ZM70.9149 70.215H49.617V48.9195H70.9149V70.215Z" fill="white"/>
<path d="M60.9809 21.7863C60.534 21.8608 60.0426 22.5012 60.0426 23.0373C60.0426 23.6032 60.6383 24.1988 61.2043 24.1988C61.8745 24.1988 62.4255 23.6925 62.4255 23.0671C62.4255 22.7692 62.366 22.4118 62.2766 22.2629C62.1128 21.9502 61.4574 21.7119 60.9809 21.7863Z" fill="white"/>
<path fill-rule="evenodd" clip-rule="evenodd" d="M64.1086 28.9494C64.7043 27.6985 65.3299 27.1177 66.4767 26.7007C68.0703 26.1348 70.0809 26.6709 71.0788 27.9367C72.3745 29.5748 72.2256 32.1214 70.766 33.551C69.932 34.3403 69.0533 34.6828 67.8618 34.6828C66.6405 34.6679 65.9852 34.4296 65.1065 33.6404C64.2426 32.8511 63.8852 32.0767 63.7958 30.8109C63.7362 29.8876 63.7809 29.6344 64.1086 28.9494ZM69.7979 30.8853C69.932 30.3046 69.4256 29.2621 68.8448 28.9196C68.383 28.6515 67.6235 28.6069 67.1022 28.8154C66.9384 28.8749 66.6107 29.143 66.4022 29.411C65.4043 30.5875 66.3128 32.5384 67.8618 32.5384C68.6958 32.5384 69.6043 31.764 69.7979 30.8853Z" fill="white"/>
<defs>
<linearGradient id="paint0_linear_43_47" x1="45" y1="0" x2="45" y2="90" gradientUnits="userSpaceOnUse">
<stop stop-color="#AE2FF5"/>
<stop offset="1" stop-color="#FF5993"/>
</linearGradient>
</defs>
</svg>
