<svg width="90" height="90" viewBox="0 0 90 90" fill="none" xmlns="http://www.w3.org/2000/svg">
<rect width="90" height="90" rx="20" fill="url(#paint0_linear_43_33)"/>
<path fill-rule="evenodd" clip-rule="evenodd" d="M20.98 19.0446C21.4732 18.2251 22.2802 17.5249 23.1021 17.2418C24.6265 16.7054 26.4049 17.0779 27.5258 18.1953C28.4224 19.0893 28.7662 20.0875 28.6765 21.488C28.5121 23.708 26.8831 25.183 24.5817 25.1979C22.8331 25.1979 21.4582 24.3039 20.7409 22.6799C20.3224 21.7115 20.427 19.9832 20.98 19.0446ZM26.1807 22.2032C26.7337 21.4135 26.4647 19.9385 25.7025 19.5214C23.5953 18.4039 21.6226 20.7282 23.2366 22.4416C24.0885 23.3504 25.4335 23.2312 26.1807 22.2032Z" fill="white"/>
<path d="M67.7121 19.6852C67.7121 19.2383 68.011 18.687 68.3696 18.5231C68.9226 18.24 69.3709 18.3294 69.8342 18.7913C70.2078 19.1787 70.2676 19.3277 70.1929 19.7299C70.0584 20.4153 69.6399 20.758 68.9674 20.758C68.534 20.758 68.3099 20.6686 68.0558 20.3557C67.8615 20.1471 67.7121 19.8342 67.7121 19.6852Z" fill="white"/>
<path d="M60.0304 19.7001C59.5373 20.0875 59.4775 21.0113 59.9408 21.4731C60.1351 21.6668 60.4339 21.7711 60.8225 21.7711C61.9135 21.7711 62.4365 20.5196 61.6594 19.7597C61.2111 19.2979 60.5684 19.283 60.0304 19.7001Z" fill="white"/>
<path d="M39.646 25.7938C39.8403 25.7045 40.5277 25.5555 41.1853 25.4363C42.889 25.1383 44.6076 25.1383 44.9065 25.4363C45.31 25.8385 45.3698 26.3749 45.041 26.807C44.787 27.1497 44.5927 27.2242 43.7109 27.3136C43.143 27.3731 42.0521 27.537 41.2899 27.6711C40.0196 27.8946 39.8702 27.8946 39.5414 27.6711C38.839 27.2093 38.9137 26.1067 39.646 25.7938Z" fill="white"/>
<path d="M47.4621 25.7194C46.6402 26.5239 47.1184 27.3136 48.6577 27.6562C49.2405 27.7754 50.3016 28.0585 51.0189 28.282L52.3341 28.6694L52.7376 28.3714C53.4848 27.8201 53.3653 26.7921 52.4985 26.4345C51.7811 26.1365 48.6577 25.3469 48.1795 25.3469C47.9852 25.3469 47.6564 25.5108 47.4621 25.7194Z" fill="white"/>
<path d="M31.7851 29.7421C31.9196 29.4143 33.8475 28.133 35.1776 27.4923C36.3134 26.956 36.672 26.9411 37.1204 27.4625C37.7182 28.1628 37.3445 28.8631 36.0294 29.5186C35.6558 29.7123 34.8637 30.1891 34.2659 30.5764C33.6532 30.9936 33.0106 31.3065 32.7864 31.3065C32.0242 31.3065 31.5012 30.4871 31.7851 29.7421Z" fill="white"/>
<path d="M55.0839 28.5502C54.4114 29.2206 54.6206 29.8464 55.8012 30.6211C56.2197 30.9042 57.0118 31.5151 57.5498 31.9621C58.3269 32.6325 58.6258 32.7964 59.0592 32.7964C59.7317 32.7964 60.0904 32.4239 60.0904 31.7535C60.0904 31.3363 59.9559 31.1277 59.3132 30.5168C58.2223 29.5335 56.2047 28.1777 55.7863 28.1777C55.592 28.1777 55.2782 28.3416 55.0839 28.5502Z" fill="white"/>
<path d="M26.3153 36.238C26.3153 35.7016 27.6902 33.6009 28.9007 32.3046C29.3491 31.8279 30.0066 31.7683 30.4699 32.1557C31.1574 32.7516 31.0378 33.1241 29.4985 35.1951L29.2547 35.5223C28.2401 36.8848 28.015 37.1871 27.7351 37.2512C27.6552 37.2694 27.5709 37.2683 27.4626 37.2669C27.4311 37.2665 27.3975 37.266 27.3614 37.266C26.7188 37.266 26.3153 36.8787 26.3153 36.238Z" fill="white"/>
<path d="M61.2709 33.8691C60.8225 34.0181 60.4938 34.6289 60.6283 35.0759C60.6731 35.2398 60.9421 35.7165 61.2111 36.1337C61.4801 36.5509 61.9434 37.3852 62.2423 37.9663C62.855 39.2029 63.3034 39.5754 63.9759 39.4264C64.9174 39.2178 64.9622 38.3388 64.1253 36.7148C62.8102 34.1968 62.1825 33.5562 61.2709 33.8691Z" fill="white"/>
<path d="M70.0285 40.0969C68.9077 40.0969 68.3547 38.8454 69.1318 38.0856C69.9239 37.281 71.1494 37.7876 71.1494 38.905C71.1494 39.6649 70.7459 40.0969 70.0285 40.0969Z" fill="white"/>
<path fill-rule="evenodd" clip-rule="evenodd" d="M43.2029 38.5473C40.2438 39.188 37.6584 41.7059 37.0008 44.6112L36.8215 45.386L27.9593 45.4307L19.0821 45.4605L18.7235 45.8031C18.3648 46.116 18.3648 46.1756 18.4395 47.7698C18.7085 52.8355 20.1731 57.2009 22.9976 61.4173C27.3167 67.8239 34.1912 71.9659 42.082 72.8896C43.9202 73.1131 47.8805 72.979 49.6739 72.6512C58.9097 70.9676 66.4717 64.6951 69.8941 55.8898C70.8206 53.491 71.3885 50.7496 71.5529 47.8145C71.6426 46.265 71.6277 46.1905 71.2989 45.8329C70.9551 45.4605 70.8954 45.4605 68.6537 45.4605H66.3671V44.79C66.3671 43.4193 66.0383 41.84 65.6797 41.4824C65.2313 41.0354 64.6485 41.0503 64.2001 41.5122C64.1664 41.5458 64.1354 41.5757 64.1068 41.6032C64.02 41.6867 63.9568 41.7476 63.9152 41.8206C63.804 42.0161 63.8478 42.2991 64.0085 43.3391C64.0217 43.4251 64.0358 43.5163 64.0507 43.613C64.1703 44.4175 64.2749 45.1774 64.2749 45.2668C64.2749 45.4158 63.4081 45.4605 60.464 45.4605C56.8474 45.4605 56.6381 45.4754 56.3542 45.7584C55.9507 46.1607 55.9656 46.9653 56.3691 47.3377C56.668 47.6059 57.0267 47.6208 63.0345 47.6655L69.4009 47.7102L69.2963 48.7829C68.1754 60.5234 58.6706 69.8204 46.8195 70.7739C35.8501 71.6679 25.3739 64.6951 21.8469 54.1764C21.3388 52.6418 20.8456 50.3622 20.6962 48.768L20.5916 47.6953H36.9261V48.0231C36.941 48.6935 37.6584 50.392 38.3309 51.3307C39.9001 53.5208 42.2165 54.6979 44.9962 54.6979C49.4647 54.6979 52.9169 51.4648 53.171 47.0249C53.3204 44.5069 52.5732 42.5849 50.7499 40.7524C48.7324 38.7261 46.0424 37.9364 43.2029 38.5473ZM46.6551 40.7822C48.2841 41.2589 49.7486 42.5253 50.5108 44.1195C50.8545 44.8347 50.8994 45.1327 50.8994 46.5034C50.8994 47.9486 50.8695 48.1423 50.4361 49.0511C49.2853 51.4648 46.5355 52.9547 44.0697 52.463C42.0222 52.0756 40.4232 50.8539 39.5713 49.0809C39.123 48.1423 39.0931 47.9486 39.0931 46.5034C39.0931 45.1178 39.1379 44.8347 39.4816 44.1046C40.7669 41.393 43.8455 39.9627 46.6551 40.7822Z" fill="white"/>
<path d="M23.715 43.7176C23.7448 42.6895 24.522 39.6948 24.8508 39.2627C25.4187 38.5625 26.7637 38.9648 26.7637 39.8289C26.7637 40.0226 26.5993 40.7377 26.405 41.4529C26.2107 42.1532 26.0015 43.0769 25.9417 43.5239C25.7624 44.835 24.8806 45.4011 24.0587 44.7307C23.7598 44.4923 23.7 44.3135 23.715 43.7176Z" fill="white"/>
<defs>
<linearGradient id="paint0_linear_43_33" x1="45" y1="0" x2="45" y2="90" gradientUnits="userSpaceOnUse">
<stop stop-color="#AE2FF5"/>
<stop offset="1" stop-color="#FF5993"/>
</linearGradient>
</defs>
</svg>
