<svg width="1034" height="375" viewBox="0 0 1034 375" fill="none" xmlns="http://www.w3.org/2000/svg">
<path fill-rule="evenodd" clip-rule="evenodd" d="M948.955 16.5155L1006.64 22.5782L984.582 232.422L1011.43 235.245L1005.37 292.927L978.519 290.105L972.561 346.792L914.879 340.73L920.837 284.042L763.702 267.526L769.765 209.844L769.765 209.844L775.201 158.129L827.91 163.669L833.554 109.965L885.27 115.4L890.706 63.6852L943.415 69.2252L948.955 16.5155ZM937.352 126.907L890.609 121.995L885.174 173.71L832.465 168.17L827.447 215.907L926.9 226.36L937.352 126.907Z" fill="white"/>
<path fill-rule="evenodd" clip-rule="evenodd" d="M157.134 8.88489L214.817 2.82224L236.872 212.666L263.724 209.844L269.787 267.526L242.935 270.349L248.893 327.036L191.211 333.099L185.253 276.411L85.8005 286.864L28.1182 292.927L28.1182 292.927L22.0555 235.245L22.0556 235.245L16.6201 183.529L69.329 177.989L63.6845 124.285L115.4 118.85L109.965 67.1345L162.674 61.5945L157.134 8.88489ZM168.737 119.277L121.994 124.19L127.429 175.905L74.7205 181.445L79.7379 229.182L179.19 218.729L168.737 119.277Z" fill="white"/>
<rect x="460.744" y="109" width="112" height="38" fill="white"/>
<rect x="610.744" y="299" width="38" height="38" transform="rotate(90 610.744 299)" fill="white"/>
<rect x="422.744" y="185" width="38" height="38" transform="rotate(-90 422.744 185)" fill="white"/>
<rect x="573.744" y="375" width="115" height="38" transform="rotate(-180 573.744 375)" fill="white"/>
<rect x="496.744" y="337" width="77" height="38" transform="rotate(-180 496.744 337)" fill="white"/>
<rect x="534.744" y="147" width="77" height="38" fill="white"/>
<rect x="572.744" y="185" width="77" height="114" fill="white"/>
<rect x="460.744" y="299" width="77" height="114" transform="rotate(180 460.744 299)" fill="white"/>
</svg>
