<svg width="945" height="271" viewBox="0 0 945 271" fill="none" xmlns="http://www.w3.org/2000/svg">
<path opacity="0.3" d="M686.501 119.171C644.446 171.038 600.429 221.85 550.013 251.859C518.248 270.767 472.425 279.294 417.888 257.994C363.379 236.706 299.567 183.599 233.001 83.5C166.532 -16.453 115.503 -49.363 77.8463 -53.6226C76.761 -53.7454 75.687 -53.8426 74.6242 -53.9154C70.886 -54.1448 67.2783 -54.099 63.7992 -53.8159C34.1491 -51.1802 14.4031 -29.5093 2.24872 -15.8356L0.753906 -17.1643C12.8793 -30.8053 33.4488 -51.3455 63.7992 -53.8159C67.2705 -54.1244 70.8776 -54.1721 74.6242 -53.9154C75.9785 -53.8324 77.35 -53.7132 78.7387 -53.5561C117.331 -49.1907 168.803 -15.6007 235.334 84.4464C301.768 184.347 362.009 235.413 416.001 256.5C469.964 277.575 517.755 268.733 548.99 250.141C599.07 220.331 643.16 171.037 685.214 119.171C694.992 107.111 704.662 94.91 714.271 82.7861C745.938 42.8299 776.942 3.71094 808.997 -26.7765C850.786 -66.5221 894.597 -91.8331 944.298 -85.1198C895.514 -91.7093 852.024 -64.9393 810.375 -25.3273C778.432 5.05357 747.552 44.0159 715.904 83.9472C706.28 96.0902 696.319 107.063 686.501 119.171Z" fill="url(#paint0_radial_452_303)"/>
<defs>
<radialGradient id="paint0_radial_452_303" cx="0" cy="0" r="1" gradientUnits="userSpaceOnUse" gradientTransform="translate(484.713 108.554) rotate(91.9607) scale(347.957 664.296)">
<stop stop-color="white" stop-opacity="0.37"/>
<stop offset="0.54969" stop-color="white" stop-opacity="0.12"/>
<stop offset="1" stop-color="white" stop-opacity="0"/>
</radialGradient>
</defs>
</svg>
