<svg width="1440" height="411" viewBox="0 0 1440 411" fill="none" xmlns="http://www.w3.org/2000/svg">
<path fill-rule="evenodd" clip-rule="evenodd" d="M1287.94 7.85446C1350.89 -1.71427 1414.97 4.53487 1454.7 13.2433L1453.62 10.2896C1413.52 1.49803 1348.94 -4.80282 1285.41 4.85345C1221.9 14.5054 1160.99 39.2124 1124.95 94.7001C1102.54 129.189 1089.29 166.06 1078.54 201.847C1075.39 212.338 1072.46 222.717 1069.59 232.913C1062.62 257.593 1056.37 284.765 1047.62 306.29C1035.3 336.619 1018.54 358.927 991.69 377.287C964.835 395.654 925.744 408.165 870.623 408.29C760.482 408.538 655.939 350.515 561.123 296.79C466.476 243.161 383.024 192.312 273.697 188.291C99.1975 181.873 10.9094 250.793 -11.572 286.729L-8.18091 288.85C13.3376 254.453 93.6226 181.702 267.123 188.084C375.296 192.062 479.772 252.044 574.623 305.79C669.307 359.44 760.769 411.041 872.128 410.79C927.758 410.664 966.224 399.55 993.948 380.589C1021.68 361.622 1038.43 334.963 1050.91 304.23C1059.75 282.489 1066.51 258.545 1073.5 233.768C1076.37 223.62 1077.52 213.332 1080.62 202.998C1091.33 167.331 1104.45 130.89 1126.55 96.8792C1161.7 42.7669 1224.95 17.4275 1287.94 7.85446Z" fill="url(#paint0_radial_452_302)"/>
<defs>
<radialGradient id="paint0_radial_452_302" cx="0" cy="0" r="1" gradientUnits="userSpaceOnUse" gradientTransform="translate(702.623 224.29) rotate(72.3556) scale(306.415 788.585)">
<stop stop-color="white" stop-opacity="0.14"/>
<stop offset="0.342396" stop-color="white" stop-opacity="0.07"/>
<stop offset="1" stop-color="white" stop-opacity="0.07"/>
</radialGradient>
</defs>
</svg>
