<svg width="126" height="85" viewBox="0 0 126 85" fill="none" xmlns="http://www.w3.org/2000/svg">
<path fill-rule="evenodd" clip-rule="evenodd" d="M3.50831 22.2552C2.61649 23.3764 1.70504 24.3582 1.50988 24.4161C0.605397 24.6815 0.745979 23.6765 2.05983 20.8384C5.12579 14.2675 9.51188 9.027 14.8751 5.5981C19.8489 2.43885 25.6287 0.759612 31.4793 0.849633C35.3595 0.884026 40.8388 2.37356 46.2639 4.8632C50.3923 6.77725 53.035 8.60151 56.654 12.0835L58.7567 14.1391L60.3063 13.623C64.0659 12.3594 68.3578 12.076 73.0125 12.7491C81.7463 14.014 90.6474 18.0866 97.8155 24.0843C99.5991 25.5825 100.243 26.3222 103.455 30.396C106.85 34.7004 107.191 35.2097 108.557 37.8959C112.701 46.1661 114.383 53.833 113.655 61.0409C113.144 66.0418 111.391 71.4141 109.894 72.5696C108.902 73.3351 107.836 73.6632 107.781 73.2113C107.765 73.0382 107.716 73.0142 107.645 73.1922C107.523 73.5337 106.066 73.1746 105.687 72.6942C105.142 72.0024 105.097 72.5939 105.419 75.56C105.681 77.9541 105.641 78.6658 105.283 79.2816C105.038 79.6568 104.875 80.0609 104.95 80.157C105.162 80.426 106.597 79.535 107.932 78.2883C112.501 74.0814 123.082 66.1612 124.389 65.9867C125.106 65.8658 125.432 66.202 125.289 66.8993C125.213 67.2984 123.911 68.396 118.541 72.5413C114.873 75.3722 110.724 78.6989 109.303 79.9505C107.201 81.7893 106.403 82.3431 105.136 82.9502C103.04 83.9188 101.313 84.3245 100.804 83.9452C100.581 83.7771 99.9899 83.6768 99.4677 83.7398C98.859 83.8078 98.4072 83.6929 98.195 83.4238C98.0132 83.1933 97.7268 81.8377 97.5866 80.4003C97.4276 78.9773 96.943 75.9199 96.4969 73.6366C95.1622 66.753 94.3456 61.6334 94.4452 60.6909C94.592 59.4647 95.5132 58.2281 97.3434 56.8463C99.1923 55.45 101.073 54.8951 101.757 55.5723C101.992 55.7933 102.33 57.1391 102.586 58.9515C103.13 62.5809 104.228 68.2868 104.379 68.3251C104.669 68.3489 106.042 65.4338 106.722 63.3945C108.833 56.9112 107.876 49.0559 104.051 41.8384C100.947 35.9182 94.7117 28.7368 88.8611 24.2571C84.646 21.0498 80.6682 19.1741 75.9475 18.1501C74.5696 17.8535 73.4173 17.5374 73.4279 17.4364C73.4199 17.3499 73.386 17.3451 73.3602 17.4268C73.3308 17.5423 72.3987 17.5817 71.2669 17.5589C70.1538 17.5216 68.6575 17.5328 67.9321 17.5672C66.4964 17.6552 62.9283 18.2455 62.6476 18.4622C62.5541 18.5344 62.8777 19.212 63.3636 19.9808C68.3425 27.6683 69.2226 33.9754 65.8656 38.4215C65.0041 39.5811 62.3587 41.685 60.9526 42.3067C58.0842 43.5934 53.9295 43.5545 51.3911 42.2061C48.4454 40.6466 46.8346 38.4896 46.0772 35.0863C44.8141 29.4767 47.4353 22.7236 52.5969 18.2756L54.5268 16.6004L54.0874 16.0431C53.3448 15.1016 50.0201 12.4126 48.2277 11.3231C45.1447 9.43676 39.9177 7.99985 34.6668 7.60149C33.1847 7.47804 31.9468 7.32067 31.9388 7.23414C31.9156 7.12839 31.814 7.11407 31.683 7.21517C31.552 7.31628 30.3909 7.40885 29.0826 7.42945C25.0679 7.52982 21.212 8.40411 17.5229 10.1389C16.0232 10.8328 14.8773 11.5936 11.9022 13.8902C7.98795 16.9425 6.87423 18.0495 3.50831 22.2552ZM57.2057 20.6844C52.1052 23.4158 48.7959 29.5254 49.8396 34.2842C50.6363 37.9663 53.4697 39.6125 57.5475 38.7524C58.7416 38.5107 59.2326 38.2554 60.6547 37.1577C62.0206 36.1033 62.4278 35.6653 62.7538 34.8573C63.6623 32.7648 63.3996 29.7217 62.0773 26.7854C61.365 25.2332 59.5837 22.2493 58.6442 21.0579C58.038 20.2892 57.989 20.2653 57.2057 20.6844Z" fill="#FFCB01"/>
</svg>
