<svg width="90" height="90" viewBox="0 0 90 90" fill="none" xmlns="http://www.w3.org/2000/svg">
<rect width="90" height="90" rx="20" fill="url(#paint0_linear_43_27)"/>
<path fill-rule="evenodd" clip-rule="evenodd" d="M66.5842 17.1344C64.7753 17.6314 63.5499 19.2103 63.5499 21.023C63.5499 23.2158 65.4463 25.1163 67.6345 25.1163C69.8373 25.1163 71.6316 23.2889 71.6316 21.0376C71.6316 19.4003 70.8584 18.1139 69.4872 17.456C68.539 17.0028 67.474 16.8713 66.5842 17.1344ZM68.9037 19.7365C69.5018 20.3359 69.6476 21.0376 69.3413 21.7978C68.7578 23.172 66.8176 23.3035 66.0298 22.0025C64.8774 20.1166 67.3428 18.1723 68.9037 19.7365Z" fill="white"/>
<path d="M23.4623 17.7045C23.0247 18.1723 23.0393 18.9764 23.4769 19.3857C24.2355 20.102 25.4755 19.5757 25.4755 18.5524C25.4755 17.5291 24.148 16.959 23.4623 17.7045Z" fill="white"/>
<path d="M54.126 20.1166C53.8488 19.5757 53.9801 18.9179 54.4032 18.6109C54.8262 18.3039 55.5702 18.3331 55.9787 18.6694C56.2413 18.874 56.3288 19.0933 56.3288 19.5611C56.3288 20.2774 55.9057 20.7306 55.2347 20.7306C54.622 20.7306 54.374 20.5991 54.126 20.1166Z" fill="white"/>
<path d="M40.5009 21.1693C39.3193 21.3155 39.0859 21.4324 38.8963 21.9002C38.6774 22.4265 38.9109 23.1575 39.3485 23.289C39.509 23.3475 40.6614 23.3036 41.9306 23.2013C44.5126 23.0113 44.7314 22.9089 44.7314 22.0464C44.7314 21.1693 44.4397 21.0231 42.7475 21.0377C41.9597 21.0524 40.9386 21.1108 40.5009 21.1693Z" fill="white"/>
<path d="M46.8904 23.1135C46.5549 22.8211 46.5403 21.944 46.8758 21.5785C47.1676 21.2569 47.7219 21.2423 49.1369 21.5347C51.0188 21.9294 52.1566 22.3241 52.3171 22.6457C52.5797 23.1281 52.4338 23.8152 51.9962 24.1368L51.6023 24.4292L50.2456 24.0491C49.5016 23.8444 48.4951 23.5959 48.0283 23.5228C47.5469 23.4351 47.0363 23.2597 46.8904 23.1135Z" fill="white"/>
<path d="M34.2135 22.7626C32.1274 23.6105 31.6022 23.9029 31.4418 24.3561C31.3251 24.6485 31.3396 24.8677 31.5147 25.2186C31.8648 25.9642 32.2733 25.9642 33.8342 25.2917C34.5636 24.9701 35.5556 24.5608 36.0224 24.3853C37.1748 23.9468 37.452 23.3474 36.8393 22.5726C36.4308 22.0463 35.9057 22.0756 34.2135 22.7626Z" fill="white"/>
<path d="M53.9948 25.087C53.8781 24.6046 54.1407 23.9614 54.5346 23.8006C54.7242 23.7275 54.9576 23.669 55.0597 23.669C55.3369 23.6544 56.3143 24.1807 57.8314 25.1601C59.1152 25.9934 59.4653 26.3735 59.4653 26.9582C59.4653 27.2944 58.7942 27.8938 58.4004 27.8938C58.2107 27.8938 57.4667 27.5137 56.7373 27.0459L56.4688 26.879C55.8016 26.4642 55.0725 26.0109 54.7388 25.818C54.3595 25.5841 54.0386 25.2771 53.9948 25.087Z" fill="white"/>
<path d="M27.5906 26.5929C25.0669 28.6103 24.6876 29.1658 25.3441 29.9991C25.7817 30.5546 26.409 30.5107 27.153 29.8529C27.2029 29.8097 27.2644 29.7562 27.3353 29.6947C27.7203 29.3604 28.3806 28.787 28.9473 28.3179C30.0122 27.4115 30.1435 27.2361 30.1435 26.7975C30.1435 26.242 29.6037 25.7011 29.0348 25.7011C28.8452 25.7011 28.2179 26.0812 27.5906 26.5929Z" fill="white"/>
<path d="M61.1575 30.7738C60.2092 29.692 60.0634 29.1657 60.5594 28.6248C60.7344 28.4348 61.0116 28.3324 61.3471 28.3324C61.7993 28.3324 61.9744 28.4494 62.7184 29.2388C64.9649 31.6509 65.388 32.7181 64.3085 33.2882C63.7687 33.566 63.3457 33.3759 62.66 32.5426C62.3099 32.1187 61.6389 31.3293 61.1575 30.7738Z" fill="white"/>
<path d="M22.7328 31.68C22.0326 32.4255 20.5155 35.13 20.5155 35.627C20.5155 36.4457 21.3616 36.9281 22.1347 36.5188C22.2806 36.4311 22.5578 36.0802 22.7182 35.744C22.8933 35.4078 23.3893 34.5891 23.8123 33.9167C24.7022 32.5425 24.8335 31.87 24.2792 31.4899C23.7686 31.1245 23.1705 31.1976 22.7328 31.68Z" fill="white"/>
<path fill-rule="evenodd" clip-rule="evenodd" d="M27.3425 42.8927C29.8954 37.9223 34.9137 34.2237 40.4279 33.2443C43.2288 32.7472 47.0217 33.0396 49.735 33.946C51.9086 34.6769 54.4178 36.1096 54.6657 36.7674C54.8554 37.2937 54.5928 37.9077 54.0822 38.1269C53.6154 38.317 53.4695 38.2585 52.0545 37.4252C46.2631 33.9752 39.1588 34.3992 33.7904 38.507C32.6525 39.3695 30.9166 41.2407 30.1288 42.4395C26.4819 47.9654 26.4673 54.997 30.0997 60.4644C30.9166 61.707 32.9735 63.9291 33.8779 64.5577L34.3447 64.8793L33.8488 63.8852C32.3462 60.8591 32.3462 57.0582 33.8779 53.9737C34.8991 51.8978 36.6642 50.1582 38.8232 49.091C40.3112 48.3455 41.3907 48.0677 43.1267 47.9654C46.3069 47.7753 49.1369 48.8571 51.4564 51.1376C53.2361 52.8919 54.3302 55.1286 54.6512 57.6576C54.9283 59.7773 54.4032 62.511 53.382 64.2799L53.0027 64.9231L53.4987 64.5869C54.4469 63.9291 56.4892 61.7216 57.3208 60.4644C58.3419 58.9441 59.0713 57.3068 59.5819 55.4063C59.9174 54.1345 59.9612 53.7398 59.9612 51.43C59.9466 49.1056 59.9174 48.7402 59.5527 47.4099C59.0713 45.6556 58.1377 43.6236 57.1457 42.1763C56.7372 41.5916 56.4017 40.963 56.4017 40.8022C56.4017 40.2759 56.9561 39.735 57.4958 39.735C58.0939 39.735 58.6191 40.3051 59.6256 42.0155C62.3682 46.6789 62.9371 52.2341 61.2157 57.4529C59.1734 63.5782 53.8926 68.227 47.3572 69.645C45.6212 70.0251 41.7992 70.0251 40.0632 69.645C33.5278 68.2416 28.247 63.5782 26.2047 57.4529C25.4753 55.2309 25.2856 54.0468 25.2856 51.5762C25.2711 48.1993 25.8254 45.831 27.3425 42.8927ZM50.3477 53.0819C49.5016 52.1317 47.8094 50.9768 46.6132 50.5529C45.3878 50.129 42.7036 50.012 41.5366 50.3336C38.94 51.0646 36.8685 52.7896 35.7306 55.1578C34.5052 57.7453 34.5344 60.3036 35.8473 62.9642C37.2915 65.9172 40.3404 67.8176 43.6373 67.8176C45.2857 67.8323 46.088 67.6422 47.649 66.882C49.9393 65.771 51.646 63.6221 52.3171 60.9907C52.4776 60.3621 52.6088 59.4996 52.6088 59.0464C52.5943 57.0582 51.6606 54.5731 50.3477 53.0819Z" fill="white"/>
<path d="M65.1546 34.9107C64.7462 35.32 64.7899 35.9486 65.2859 36.9281C65.5193 37.3812 65.884 38.273 66.1029 38.9016C66.3363 39.5741 66.628 40.1003 66.7885 40.188C67.2553 40.4366 67.9409 40.2904 68.2619 39.8518C68.5244 39.4863 68.539 39.3986 68.3786 38.8285C67.9993 37.5567 66.8614 35.0422 66.5697 34.8376C66.132 34.5306 65.5047 34.5598 65.1546 34.9107Z" fill="white"/>
<path d="M18.5607 40.5682C18.9692 38.9309 19.2317 38.3315 19.5964 38.2292C20.1508 38.083 20.3988 38.1415 20.7343 38.4923C21.1574 38.9017 21.1865 39.2379 20.8656 40.2466C20.7489 40.6413 20.5301 41.5623 20.3696 42.2932C20.18 43.2434 20.0195 43.6674 19.7861 43.8574C19.3339 44.2229 18.8087 44.179 18.3711 43.7405C17.948 43.3019 17.9626 42.9657 18.5607 40.5682Z" fill="white"/>
<path d="M67.6929 42.1911C67.299 42.4542 67.1969 42.9366 67.3428 43.9307C67.4157 44.4716 67.4886 45.4364 67.4886 46.065C67.4886 47.1614 67.6345 47.7169 67.9846 47.9508C68.3202 48.1847 69.0787 48.0678 69.3997 47.7316C69.6914 47.4246 69.706 47.3222 69.6185 45.5826C69.5018 43.3459 69.3413 42.5127 69.0058 42.2641C68.7286 42.0595 67.9555 42.0156 67.6929 42.1911Z" fill="white"/>
<path d="M17.7 46.635L18.0793 46.2549C18.5607 45.7725 19.115 45.7725 19.5673 46.2403C19.9028 46.5619 19.932 46.7081 19.932 47.8045C19.932 48.477 20.0049 49.4711 20.0778 50.0412C20.2091 50.9475 20.2091 51.0937 19.9611 51.43C19.7715 51.6639 19.5235 51.8101 19.188 51.8393C18.1668 51.927 17.9772 51.4592 17.8021 48.4185L17.7 46.635Z" fill="white"/>
<path d="M67.5762 50.2022C67.4449 50.3191 67.299 50.5969 67.2552 50.8162C67.2115 51.0354 67.0072 51.8687 66.803 52.6727C66.2778 54.734 66.2487 55.0264 66.5258 55.4503C66.8176 55.9035 67.7512 55.962 68.1013 55.5526C68.5536 55.0556 69.4872 51.2693 69.3121 50.6992C69.1663 50.2168 68.8161 49.9683 68.291 49.9683C68.0284 49.9683 67.6929 50.0706 67.5762 50.2022Z" fill="white"/>
<path d="M18.9108 54.6022C18.9108 54.4853 19.0421 54.2221 19.2171 54.0029C19.436 53.7251 19.6548 53.6228 20.0049 53.6228C20.6176 53.6228 20.9823 53.9882 21.2303 54.8215C21.3324 55.1431 21.6679 56.0056 21.9889 56.722C22.6307 58.1984 22.6891 58.6078 22.266 59.0317C21.6533 59.6457 20.8218 59.3533 20.3112 58.33C19.8882 57.4967 18.9108 54.88 18.9108 54.6022Z" fill="white"/>
<path d="M65.3588 57.4384C65.1983 57.5262 64.8482 57.994 64.571 58.4764C64.3084 58.9734 63.7833 59.8067 63.4186 60.333C62.66 61.4586 62.5579 62.1164 63.0976 62.555C63.9292 63.2275 64.6148 62.7012 66.0298 60.3037C66.9634 58.7395 67.1093 58.0963 66.6571 57.6723C66.307 57.3654 65.7235 57.263 65.3588 57.4384Z" fill="white"/>
<path d="M22.4994 61.8824C22.3827 61.4 22.6307 60.8006 23.0246 60.6398L23.0513 60.6297C23.2545 60.5524 23.3519 60.5153 23.4507 60.5111C23.5417 60.5072 23.6338 60.5312 23.8108 60.5772L23.8269 60.5814C24.002 60.6252 24.6438 61.2684 25.2419 62.014C25.84 62.7449 26.4965 63.5051 26.7007 63.6952C26.9633 63.9437 27.08 64.2068 27.08 64.5577C27.08 65.2448 26.7299 65.6102 26.0735 65.6102C25.6212 65.6102 25.4316 65.4933 24.8772 64.9085C23.8123 63.8121 22.5869 62.2479 22.4994 61.8824Z" fill="white"/>
<path d="M60.9241 63.6661C60.8074 63.7099 60.4135 64.0169 60.0488 64.3532C59.6841 64.6894 58.9109 65.3473 58.342 65.8004C57.35 66.5898 57.2771 66.6922 57.2771 67.2038C57.2771 68.4172 58.2982 68.5926 59.6111 67.5839C60.9532 66.546 62.1057 65.435 62.2516 65.0403C62.4558 64.514 62.164 63.9146 61.6243 63.7246L61.5945 63.714C61.3602 63.6311 61.1715 63.5644 61.1575 63.5784C61.1485 63.5784 61.106 63.5951 61.0473 63.6183C61.0111 63.6326 60.9686 63.6493 60.9241 63.6661Z" fill="white"/>
<path d="M28.4367 68.0076C27.8532 67.452 27.8095 66.9111 28.32 66.4141C28.5097 66.2094 28.816 66.0486 28.9911 66.0486C29.1661 66.0486 29.9101 66.4287 30.6395 66.9111C31.3689 67.3789 32.1712 67.876 32.4338 67.9929C33.1195 68.3584 33.3529 68.6508 33.3529 69.2063C33.3529 69.908 32.8861 70.3466 32.2588 70.2442C31.6898 70.1565 29.1224 68.6508 28.4367 68.0076Z" fill="white"/>
<path d="M54.0677 68.4609C53.8635 68.5778 53.0174 68.9433 52.1713 69.2795C50.552 69.9081 50.2749 70.1128 50.2749 70.7268C50.2749 71.37 50.6542 71.7501 51.2814 71.7501C52.0546 71.7501 55.1181 70.566 55.7162 70.0397C56.0517 69.7181 56.0517 68.7971 55.7016 68.4901C55.3661 68.1831 54.5637 68.1831 54.0677 68.4609Z" fill="white"/>
<path d="M69.9686 70.4783C69.9686 70.1274 70.0853 69.8204 70.2895 69.6011C70.7272 69.1333 71.4711 69.148 71.938 69.6304C72.6965 70.3759 72.1859 71.6039 71.121 71.6039C70.377 71.6039 69.9686 71.2092 69.9686 70.4783Z" fill="white"/>
<path d="M35.2055 69.9667C35.0596 70.1129 34.9575 70.4784 34.9575 70.7708C34.9575 71.4871 35.3076 71.7064 37.35 72.218C39.3777 72.7297 40.253 72.7589 40.5593 72.3057C40.8656 71.8672 40.8511 71.224 40.5155 70.8877C40.3697 70.7415 39.8153 70.5369 39.2464 70.4345C38.692 70.3322 37.8168 70.1275 37.2916 69.9667C36.0954 69.6305 35.5119 69.6305 35.2055 69.9667Z" fill="white"/>
<path d="M44.3959 70.8585C44.9356 70.8438 45.7525 70.8 46.1902 70.7269C48.0429 70.4784 48.5243 70.6538 48.5243 71.5748C48.5243 72.5835 48.2617 72.715 45.6504 72.9197C43.3455 73.0951 42.9517 73.022 42.7037 72.3057C42.5286 71.7941 42.7037 71.2532 43.1121 71.0339C43.2726 70.9462 43.8415 70.8731 44.3959 70.8585Z" fill="white"/>
<defs>
<linearGradient id="paint0_linear_43_27" x1="45" y1="0" x2="45" y2="90" gradientUnits="userSpaceOnUse">
<stop stop-color="#AE2FF5"/>
<stop offset="1" stop-color="#FF5993"/>
</linearGradient>
</defs>
</svg>
