<svg width="18" height="18" viewBox="0 0 18 18" fill="none" xmlns="http://www.w3.org/2000/svg">
<g clip-path="url(#clip0_442_361)">
<path d="M7.845 10.4856L6.07125 8.71186C5.92 8.56061 5.7275 8.48499 5.49375 8.48499C5.26 8.48499 5.0675 8.56061 4.91625 8.71186C4.765 8.86311 4.68938 9.05561 4.68938 9.28936C4.68938 9.52311 4.765 9.71561 4.91625 9.86686L7.2675 12.2181C7.4325 12.3831 7.625 12.4656 7.845 12.4656C8.065 12.4656 8.2575 12.3831 8.4225 12.2181L13.0838 7.55686C13.235 7.40561 13.3106 7.21311 13.3106 6.97936C13.3106 6.74561 13.235 6.55311 13.0838 6.40186C12.9325 6.25061 12.74 6.17499 12.5063 6.17499C12.2725 6.17499 12.08 6.25061 11.9288 6.40186L7.845 10.4856ZM9 17.2506C7.85875 17.2506 6.78625 17.0339 5.7825 16.6005C4.77875 16.1671 3.90563 15.5794 3.16313 14.8375C2.42063 14.095 1.83295 13.2219 1.4001 12.2181C0.96725 11.2144 0.75055 10.1419 0.75 9.00061C0.75 7.85936 0.9667 6.78686 1.4001 5.78311C1.8335 4.77936 2.42118 3.90624 3.16313 3.16374C3.90563 2.42124 4.77875 1.83356 5.7825 1.40071C6.78625 0.96786 7.85875 0.75116 9 0.75061C10.1413 0.75061 11.2138 0.96731 12.2175 1.40071C13.2213 1.83411 14.0944 2.42179 14.8369 3.16374C15.5794 3.90624 16.1673 4.77936 16.6007 5.78311C17.0341 6.78686 17.2506 7.85936 17.25 9.00061C17.25 10.1419 17.0333 11.2144 16.5999 12.2181C16.1665 13.2219 15.5788 14.095 14.8369 14.8375C14.0944 15.58 13.2213 16.1679 12.2175 16.6013C11.2138 17.0347 10.1413 17.2512 9 17.2506Z" fill="#2F54E9"/>
</g>
<defs>
<clipPath id="clip0_442_361">
<rect width="18" height="18" fill="white"/>
</clipPath>
</defs>
</svg>
