<svg width="120" height="120" viewBox="0 0 120 120" fill="none" xmlns="http://www.w3.org/2000/svg">
<path d="M54.0467 42.5431C55.038 39.5474 56.4387 37.1552 58.2488 35.2586C59.0031 34.5043 59.2832 34.3534 59.9512 34.3534C61.0718 34.3534 61.7183 34.9784 61.7183 36.0776C61.7183 36.7672 61.5243 37.1121 60.6408 38.1681C59.2401 39.7845 57.7532 42.7155 57.3007 44.806C56.7619 47.1983 56.9343 50.4741 57.7101 52.7802C58.5936 55.3233 58.6583 55.3448 59.434 53.2759C61.9338 46.6595 68.1615 41.9828 75.4021 41.3362C77.2984 41.1638 78.1604 41.444 78.5267 42.3276C78.8499 43.125 78.6129 44.2026 78.0311 44.569C77.7725 44.7414 76.8459 44.9353 75.9623 45C73.7643 45.194 72.6653 45.4741 70.6612 46.4224C67.3642 47.9526 64.9722 50.2586 63.4207 53.4483C62.9681 54.3966 62.5802 55.2802 62.5802 55.431C62.5802 55.5603 63.2914 55.3448 64.1533 54.9353C66.9332 53.6422 68.0969 53.4267 72.0619 53.4483C75.3805 53.4483 75.7468 53.4914 77.4492 54.0517C80.4446 55.0431 82.8366 56.444 84.7329 58.2543C85.4871 59.0086 85.638 59.2888 85.638 59.9569C85.638 61.0776 85.013 61.7241 83.914 61.7241C83.2244 61.7241 82.8797 61.5302 81.8237 60.6466C80.2075 59.2457 77.2768 57.7586 75.1866 57.306C72.7946 56.7672 69.5191 56.9397 67.2133 57.7155C64.6705 58.5991 64.649 58.6638 66.7177 59.4397C73.3333 61.9397 78.0095 68.1681 78.656 75.4095C78.8284 77.306 78.5482 78.1681 77.6647 78.5345C76.8674 78.8578 75.7899 78.6207 75.4236 78.0388C75.2512 77.7802 75.0573 76.8534 74.9926 75.9698C74.7987 73.7716 74.5185 72.6724 73.5704 70.6681C72.4929 68.3405 71.0706 66.5302 69.1959 65.0862C67.8383 64.0517 65.1231 62.5862 64.5412 62.5862C64.4335 62.5862 64.649 63.2974 65.0584 64.1379C66.3514 66.9397 66.5669 68.1034 66.5453 72.069C66.5453 75.3879 66.5022 75.7543 65.9419 77.4569C64.9507 80.4526 63.55 82.8448 61.7398 84.7198C60.9856 85.4957 60.7054 85.6466 60.0374 85.6466C58.9169 85.6466 58.2704 85.0216 58.2704 83.9224C58.2704 83.2328 58.4643 82.8879 59.3478 81.8319C62.494 78.1681 63.7654 72.9095 62.6018 68.3405C62.1277 66.4871 61.2657 64.6767 61.1149 65.1724C58.8091 72.7155 52.3874 77.9526 44.5866 78.6638C42.6903 78.8362 41.8283 78.556 41.4619 77.6724C41.1387 76.875 41.3757 75.7974 41.9576 75.431C42.2162 75.2586 43.1428 75.0647 44.0263 75C46.3105 74.806 47.3664 74.5043 49.5429 73.4698C51.784 72.3922 53.5295 70.9914 54.9302 69.181C55.8569 67.9741 57.4084 65.0862 57.4084 64.569C57.4084 64.4397 56.6973 64.6552 55.8569 65.0647C53.0555 66.3578 51.8918 66.5733 47.9267 66.5517C44.6081 66.5517 44.2418 66.5086 42.5394 65.9483C39.5441 64.9569 37.1305 63.556 35.2773 61.7457C34.5015 61.0129 34.3507 60.7328 34.3507 60.0431C34.3507 58.9224 34.9756 58.2759 36.0746 58.2759C36.7642 58.2759 37.109 58.4698 38.1649 59.3534C41.8283 62.5 47.0863 63.7716 51.6548 62.6078C53.508 62.1336 55.3181 61.2716 54.8225 61.1207C47.2802 58.8147 42.0438 52.3922 41.3326 44.5905C41.1603 42.694 41.4404 41.8319 42.3239 41.4655C43.1212 41.1422 44.1987 41.3793 44.565 41.9612C44.7374 42.2198 44.9314 43.1466 44.996 44.0302C45.19 46.2284 45.4701 47.3276 46.4183 49.3319C47.4957 51.6595 48.918 53.4698 50.7928 54.9138C52.1504 55.9483 54.8656 57.4138 55.4474 57.4138C55.5552 57.4138 55.3397 56.7026 54.9302 55.8405C53.6373 53.0603 53.4218 51.8966 53.4433 47.931C53.4433 44.6121 53.4864 44.2457 54.0467 42.5431Z" fill="white"/>
<path fill-rule="evenodd" clip-rule="evenodd" d="M10 23.8147C10 11.1422 10 10.8621 10.431 10.431C10.862 10 11.1421 10 23.8131 10C31.8294 10 36.8935 10.0862 37.1521 10.2155C37.9494 10.6466 38.0141 11.444 38.0141 22.9957V34.181L39.0269 34.0302C44.4142 33.2328 49.7153 30.194 53.1417 25.9483C55.7922 22.6724 57.7101 18.0819 57.9687 14.3103C58.2273 10.4957 58.4643 10 59.9943 10C61.5243 10 61.7614 10.4957 62.02 14.3103C62.4078 19.6552 65.6187 25.5603 70.1225 29.2457C73.0747 31.6379 77.2337 33.4698 80.9618 34.0302L81.9746 34.181V22.8448C81.9746 10.8621 81.9961 10.4957 82.9443 10.1293C83.1382 10.0647 89.1074 10 96.2187 10C108.847 10 109.127 10 109.558 10.431C109.989 10.8621 109.989 11.1422 109.989 23.8147C109.989 31.8319 109.902 36.8966 109.773 37.1552C109.342 37.9526 108.545 38.0172 96.9944 38.0172H85.8104L85.9612 39.0302C86.7585 44.4181 89.797 49.7198 94.0422 53.1466C96.1971 54.8922 99.8389 56.7672 102.339 57.4138C103.653 57.7586 107.554 58.2543 108.976 58.2759C109.062 58.2759 109.321 58.4698 109.558 58.7069C110.29 59.4397 110.075 61.2716 109.191 61.6164C108.976 61.681 107.726 61.8319 106.433 61.9397C97.0591 62.7155 89.1505 69.0948 86.6508 77.8879C86.3491 78.9009 86.0474 80.2371 85.9612 80.8405L85.8104 81.9828H97.016C108.545 81.9828 109.342 82.0474 109.773 82.8448C109.902 83.1034 109.989 88.1681 109.989 96.1853C109.989 108.858 109.989 109.138 109.558 109.569C109.127 110 108.847 110 96.2187 110C89.1074 110 83.1382 109.935 82.9443 109.871C81.9961 109.504 81.9746 109.138 81.9746 97.1767V85.819L80.854 85.9698C77.363 86.444 73.1178 88.3405 70.1225 90.7759C65.5971 94.4397 62.4078 100.345 62.02 105.69C61.7614 109.504 61.5243 110 59.9943 110C58.4643 110 58.2273 109.504 57.9687 105.69C57.5808 100.345 54.3915 94.4397 49.8662 90.7759C46.8708 88.3405 42.6256 86.444 39.1562 85.9698L38.0141 85.819V97.0259C38.0141 108.556 37.9494 109.353 37.1521 109.784C36.8935 109.914 31.8294 110 23.8131 110C11.1421 110 10.862 110 10.431 109.569C10 109.138 10 108.858 10 96.1853C10 88.1681 10.0862 83.1034 10.2155 82.8448C10.6465 82.0474 11.4438 81.9828 22.9942 81.9828H34.1783L34.0274 80.9698C32.9931 74.0517 28.4246 67.6078 22.2831 64.4397C19.1584 62.8233 16.8527 62.2198 12.3058 61.8103C10.4956 61.6595 10 61.2716 10 60C10 59.2026 10.5387 58.2759 11.0128 58.2759C11.0732 58.2759 11.4584 58.242 12.0129 58.1933C12.4479 58.1551 12.9872 58.1077 13.5556 58.0603C16.788 57.7802 18.9429 57.1767 21.7444 55.7974C26.2697 53.5776 29.696 50.1509 31.8941 45.6681C32.9931 43.4052 33.7042 41.2284 34.0274 39.0302L34.1783 38.0172H22.9942C11.4438 38.0172 10.6465 37.9526 10.2155 37.1552C10.0862 36.8966 10 31.8319 10 23.8147ZM80.2075 37.6293C72.1481 36.5302 64.5628 31.0129 60.964 23.6207C60.49 22.6509 60.059 21.8534 59.9943 21.8534C59.9081 21.8534 59.5418 22.5216 59.1539 23.3621C56.4387 29.2457 50.6635 34.375 44.3926 36.5086C42.5179 37.1552 39.501 37.8017 38.4235 37.8017C37.8848 37.8017 37.7986 37.8879 37.7986 38.4267C37.7986 39.5043 37.1521 42.5216 36.5056 44.3966C34.3938 50.625 29.5021 56.1638 23.6191 59.0302C22.6494 59.5043 21.8521 59.9353 21.8521 60C21.8521 60.0647 22.6494 60.4957 23.5976 60.9483C29.4374 63.75 34.3938 69.375 36.5056 75.6034C37.1521 77.4784 37.7986 80.4957 37.7986 81.5733C37.7986 82.1121 37.8848 82.1983 38.4235 82.1983C38.7683 82.1983 39.8242 82.3491 40.7724 82.5216C48.681 84.0302 55.8784 89.5474 59.197 96.6595C59.5633 97.4784 59.9297 98.1466 59.9943 98.1466C60.059 98.1466 60.49 97.3491 60.9425 96.4009C64.455 89.0733 72.1481 83.4698 80.2075 82.3707L82.1901 82.1121V81.3793C82.1901 80.4741 82.7288 77.8448 83.3106 75.9914C83.8494 74.181 85.2932 71.2716 86.5215 69.4612C88.7195 66.2069 92.857 62.6509 96.4126 60.9267C97.3608 60.4741 98.1365 60.0647 98.1365 60C98.1365 59.9353 97.2746 59.4828 96.2402 58.9655C88.9996 55.431 83.4399 47.7586 82.3625 39.7629L82.1039 37.8879L80.2075 37.6293Z" fill="white"/>
</svg>
